<svg data-v-0dd9719b="" version="1.0" xmlns="http://www.w3.org/2000/svg" xmlns:xlink="http://www.w3.org/1999/xlink" width="100%" height="100%" viewBox="0 0 340.000000 250.000000" preserveAspectRatio="xMidYMid meet" color-interpolation-filters="sRGB" style="margin: auto;"> <rect data-v-0dd9719b="" x="0" y="0" width="100%" height="100%" fill="#fff" fill-opacity="1" class="background"></rect> <rect data-v-0dd9719b="" x="0" y="0" width="100%" height="100%" fill="url(#watermark)" fill-opacity="1" class="watermarklayer"></rect> <g data-v-0dd9719b="" fill="#009fe8" class="icon-text-wrapper icon-svg-group iconsvg" transform="translate(50.105003356933594,94.98919677734375)"><g class="iconsvg-imagesvg" transform="translate(0,0)"><g><rect fill="#009fe8" fill-opacity="0" stroke-width="2" x="0" y="0" width="60" height="60.02160777880037" class="image-rect"></rect> <svg x="0" y="0" width="60" height="60.02160777880037" filtersec="colorsb4520070549" class="image-svg-svg primary" style="overflow: visible;"><svg version="1.1" id="cube" xmlns="http://www.w3.org/2000/svg" xmlns:xlink="http://www.w3.org/1999/xlink" x="0px" y="0px" viewBox="6.709991455078125 8.109999656677246 448.3600158691406 448.5225830078125" enable-background="new 0 0 461.33 459.96" xml:space="preserve">
<g>
	<path fill="#009FE8" d="M6.71,8.11v122.46C26.78,113,67.5,85.21,123.74,85.94c82.1,1.07,139.69,75.71,219.67,89.58
		c59.56,10.32,96.61-12.46,111.66-24.77V8.11H6.71z"></path>
	<path fill="#0068B6" d="M314.61,292.81c-73.58-42.64-108.77-140.76-189.81-168.48c-62.7-21.45-103.04,3.68-118.09,16.16v10.64
		c24.78-14.74,57.47-24.58,91.44-7.61c89.59,44.8,132.22,201.53,192.99,262.32c56.53,56.51,149.94,50.58,162.59,50.64h1.34V311.8
		C435.38,316.86,375.01,327.82,314.61,292.81z"></path>
	<path fill="#00469B" d="M6.71,159.25v297.22h150.35c8.79-36.82,12.6-86.04,4-150.87C137.61,128.87,37.16,148.87,6.71,159.25z"></path>
</g>
</svg></svg> <!----></g></g> <g transform="translate(67,2.0195541381835938)"><g data-gra="path-name" fill-rule="" class="tp-name iconsvg-namesvg" transform="translate(0,0)"><g transform="scale(1)"><g><path d="M17.58-35.16L17.58-35.16 24.96-35.16 25.66-32.87 40.25-32.87 40.25-29.18 27.25-29.18 27.25-26.72 34.45-26.72Q36.56-26.72 37.62-24.61L37.62-24.61Q37.97-23.91 37.97-23.2L37.97-23.2 37.97-19.86 40.96-19.86 40.96-16.17 37.97-16.17 37.97-9.14 27.25-9.14 27.25-7.21 35.51-7.21Q36.91-7.21 37.79-6.33L37.79-6.33Q39.02-5.1 39.02-3.87L39.02-3.87 39.02 5.45 9.84 5.45 9.84-7.21 16.88-7.21 16.88 1.93 31.99 1.93 31.99-1.93Q31.99-2.99 30.76-3.52L30.76-3.52Q30.41-3.52 30.23-3.52L30.23-3.52 18.11-3.52 18.11-7.21 20.21-7.21 20.21-9.14 10.02-9.14 10.02-12.83 20.21-12.83 20.21-16.17 9.14-16.17 9.14-9.32Q9.14-2.64 8.26 0.88L8.26 0.88Q7.56 3.34 6.68 5.1L6.68 5.1Q6.68 5.27 6.5 5.45L6.5 5.45 0 5.45 0 5.45Q0.7 4.04 1.41 1.05L1.41 1.05Q1.93-0.7 2.29-3.34L2.29-3.34Q2.64-6.68 2.64-8.61L2.64-8.61 2.64-32.87 18.28-32.87 18.28-32.87Q17.58-35.16 17.58-35.16ZM20.21-29.18L9.14-29.18 9.14-19.86 20.21-19.86 20.21-23.03 10.02-23.03 10.02-26.72 20.21-26.72 20.21-29.18ZM29.71-23.03L27.25-23.03 27.25-19.86 31.46-19.86 31.46-21.45Q31.46-22.5 30.41-23.03L30.41-23.03Q30.06-23.03 29.71-23.03L29.71-23.03ZM31.46-16.17L27.25-16.17 27.25-12.83 31.46-12.83 31.46-16.17ZM61.17 1.93L61.17-35.16 68.55-35.16 68.55 1.93 74.53 1.93 74.53 5.45 49.04 5.45Q47.46 5.45 46.23 4.04L46.23 4.04Q45.53 3.16 45.53 1.93L45.53 1.93 45.53-29.36 53.09-29.36 53.09 0.18Q53.09 1.23 54.14 1.76L54.14 1.76Q54.32 1.93 54.67 1.93L54.67 1.93 61.17 1.93ZM75.94 5.45L75.94-29.36 83.32-29.36 83.32 5.45 75.94 5.45ZM93.52-16.35L93.52-35.16 98.79-35.16 98.79-16.35Q98.79-16.35 100.2-10.9L100.2-10.9Q100.2-10.55 104.41 5.45L104.41 5.45 99.14 5.45Q98.79 4.22 96.15-6.15L96.15-6.15 96.15-6.15Q95.98-5.8 93.16 5.45L93.16 5.45 87.89 5.45Q93.52-16.35 93.52-16.35L93.52-16.35ZM113.73-32.34L113.03-35.16 120.41-35.16Q120.41-35.16 120.76-33.4L120.76-33.4Q120.76-33.4 121.11-32.34L121.11-32.34 128.5-32.34 128.5-28.83 118.3-28.83 113.38-16Q113.38-15.64 113.38-15.64L113.38-15.64Q113.38-15.12 113.91-14.59L113.91-14.59Q114.26-14.41 114.43-14.41L114.43-14.41 119.18-23.38 126.56-23.38Q114.96-0.7 114.79-0.53L114.79-0.53Q114.26 0.53 114.26 0.88L114.26 0.88Q114.26 1.58 114.96 1.76L114.96 1.76Q114.96 1.93 115.14 1.93L115.14 1.93 120.76 1.93 121.11 5.45 108.98 5.45Q106.7 5.45 106 4.04L106 4.04Q105.64 3.52 105.64 2.99L105.64 2.99Q105.64 1.76 106.88-0.18L106.88-0.18Q107.58-1.41 112.5-10.9L112.5-10.9 108.81-10.9Q106.17-10.9 105.47-12.3L105.47-12.3Q105.29-12.83 105.29-13.54L105.29-13.54Q105.29-14.77 106.35-17.58L106.35-17.58 110.92-28.83 106.17-28.83Q106.17-28.83 106.17-28.83L106.17-28.83 106.17-32.34Q106.17-32.34 106.17-32.34L106.17-32.34 113.73-32.34ZM87.89-32.17L87.89-32.17 91.76-32.17Q92.81-16.7 92.81-16.52L92.81-16.52 88.77-16.52Q87.89-31.99 87.89-32.17ZM100.55-32.17L100.55-32.17 104.41-32.17 103.54-16.52 99.49-16.52Q99.49-17.23 100.55-32.17ZM120.94-10.2L120.94-10.2 127.44-10.2Q127.44-10.2 127.44-10.2L127.44-10.2 128.85 5.45 122.34 5.45Q122.34 5.45 122.17 4.39L122.17 4.39Q122.17 3.69 120.94-10.2ZM136.23-31.11L136.23-35.16 142.38-35.16 142.38-31.11 146.07-31.11 146.07-27.6 142.38-27.6 142.38-19.34 146.78-19.34 146.78-15.64Q146.78-15.64 146.78-15.64L146.78-15.64 131.84-15.64 131.84-19.34 136.23-19.34 136.23-27.6 132.54-27.6 132.54-31.11 136.23-31.11ZM147.83-34.28L147.83-34.28 161.02-34.28 161.02-30.59 160.31-30.59 160.31-7.56Q160.84-7.56 161.02-7.56L161.02-7.56 161.02-4.04Q160.49-3.87 160.31-3.87L160.31-3.87 160.31-0.7Q160.31-0.7 160.14-0.7L160.14-0.7 155.92-0.7Q155.92-0.7 155.92-0.7L155.92-0.7 155.92-3.69Q148.36-3.34 147.83-3.34L147.83-3.34Q147.83-3.34 147.83-3.34L147.83-3.34 147.83-3.34 147.83-7.03Q148.54-7.03 148.71-7.03L148.71-7.03 148.71-30.59 147.66-30.59 147.66-34.1Q147.66-34.28 147.83-34.28ZM161.54-29.88L161.54-33.57 169.1-33.57Q171.74-33.57 172.44-31.64L172.44-31.64Q172.44-31.29 172.44-30.94L172.44-30.94Q172.44-30.41 171.91-28.48L171.91-28.48Q168.93-17.23 168.93-16.88L168.93-16.88 172.79-0.7 168.93-0.7 166.82-9.14 166.82-9.14Q165.23-3.16 164.53-0.7L164.53-0.7 160.66-0.7 160.66-0.7Q160.84-1.76 164.88-16.88L164.88-16.88 162.07-28.65 165.94-28.65 166.99-24.61 166.99-24.61Q168.05-28.48 168.05-28.65L168.05-28.65Q168.05-29.53 167.17-29.88L167.17-29.88Q166.99-29.88 166.82-29.88L166.82-29.88 161.54-29.88Q161.54-29.88 161.54-29.88L161.54-29.88ZM155.92-30.59L152.93-30.59 152.93-25.31 155.92-25.31 155.92-30.59ZM155.92-21.8L152.93-21.8 152.93-16.52 155.92-16.52 155.92-21.8ZM139.57 1.23L139.57-14.41 144.84-14.41 144.84-8.79 147.13-8.79 147.13-5.1 144.84-5.1 144.84 2.11 172.79 2.11 172.79 5.45 140.98 5.45Q138.52 5.45 136.76 4.04L136.76 4.04 136.76 4.04 136.76 4.04 136.58 5.45 131.84 5.45Q132.01 3.16 133.24-13.36L133.24-13.36 137.99-13.36 137.11-2.11 138.34-2.11Q138.52-0.53 138.87 0.18L138.87 0.18Q139.22 0.7 139.57 1.23L139.57 1.23ZM155.92-12.83L152.93-12.83 152.93-7.21 155.92-7.38 155.92-12.83Z" transform="translate(0, 35.15999984741211)"></path></g> <!----> <!----> <!----> <!----> <!----> <!----> <!----></g></g> <g data-gra="path-slogan" fill-rule="" class="tp-slogan iconsvg-slogansvg" fill="#009fe8" transform="translate(26.514999389648438,46.61000061035156)"><!----> <!----> <g transform="scale(1, 1)"><g transform="scale(1)"><path d="M3.09-7.59L0.19-7.59L0.19-8.58L7.13-8.58L7.13-7.59L4.22-7.59L4.22 0L3.09 0L3.09-7.59ZM13.83 0L12.98-2.48L9.52-2.48L8.63 0L7.45 0L10.69-8.58L12-8.58L15.09 0L13.83 0ZM11.25-7.31L9.89-3.52L12.56-3.52L11.30-7.31L11.25-7.31ZM17.53-8.58L21.84-1.64L21.84-8.58L22.97-8.58L22.97 0L21.66 0L17.30-6.94L17.25-6.94L17.25 0L16.13 0L16.13-8.58L17.53-8.58ZM31.17-3.61L28.55-3.61L28.55-4.59L32.30-4.59L32.30 0L31.55 0L31.27-1.08Q30.28 0.09 28.45 0.14L28.45 0.14Q26.72 0.14 25.78-0.75L25.78-0.75Q24.38-2.06 24.42-4.36L24.42-4.36Q24.75-8.63 28.50-8.81L28.50-8.81Q31.69-8.63 32.16-6L32.16-6L31.03-6Q30.56-7.78 28.45-7.83L28.45-7.83Q25.78-7.64 25.64-4.31L25.64-4.31Q25.64-0.75 28.50-0.75L28.50-0.75Q29.53-0.75 30.28-1.31L30.28-1.31Q31.22-2.06 31.17-3.61L31.17-3.61ZM40.36-6.09L40.36-6.09L39.28-6.09Q39.19-7.73 37.13-7.83L37.13-7.83Q35.20-7.78 35.20-6.33L35.20-6.33Q35.20-5.39 36.23-5.25L36.23-5.25L38.67-4.69Q40.59-4.22 40.59-2.34L40.59-2.34Q40.55 0.05 37.22 0.14L37.22 0.14Q35.39 0.14 34.64-0.61L34.64-0.61Q33.70-1.31 33.75-2.77L33.75-2.77L34.88-2.77Q34.92-0.80 37.22-0.75L37.22-0.75Q39.47-0.80 39.52-2.20L39.52-2.20Q39.70-3.38 37.64-3.75L37.64-3.75L35.86-4.13Q34.03-4.64 34.03-6.19L34.03-6.19Q34.17-8.72 37.03-8.81L37.03-8.81Q40.27-8.81 40.36-6.09ZM43.22-5.06L47.72-5.06L47.72-8.58L48.89-8.58L48.89 0L47.72 0L47.72-3.98L43.22-3.98L43.22 0L42.05 0L42.05-8.58L43.22-8.58L43.22-5.06ZM56.34 0L55.50-2.48L52.03-2.48L51.14 0L49.97 0L53.20-8.58L54.52-8.58L57.61 0L56.34 0ZM53.77-7.31L52.41-3.52L55.08-3.52L53.81-7.31L53.77-7.31ZM60.05-8.58L64.36-1.64L64.36-8.58L65.48-8.58L65.48 0L64.17 0L59.81-6.94L59.77-6.94L59.77 0L58.64 0L58.64-8.58L60.05-8.58ZM77.34-8.58L74.44-4.41L77.48 0L76.03 0L73.69-3.52L71.34 0L69.94 0L73.03-4.41L70.13-8.58L71.58-8.58L73.73-5.30L75.94-8.58L77.34-8.58ZM84.23-3.19L84.23-8.58L85.41-8.58L85.41-3.05Q85.27 0.05 81.89 0.14L81.89 0.14Q78.75 0.05 78.61-2.86L78.61-2.86L78.61-8.58L79.78-8.58L79.78-3.19Q79.83-0.84 81.94-0.80L81.94-0.80Q84.23-0.84 84.23-3.19L84.23-3.19ZM92.86 0L92.02-2.48L88.55-2.48L87.66 0L86.48 0L89.72-8.58L91.03-8.58L94.13 0L92.86 0ZM90.28-7.31L88.92-3.52L91.59-3.52L90.33-7.31L90.28-7.31ZM96.56-8.58L100.88-1.64L100.88-8.58L102-8.58L102 0L100.69 0L96.33-6.94L96.28-6.94L96.28 0L95.16 0L95.16-8.58L96.56-8.58ZM108.80-1.08L107.91-1.78L108.52-2.48L109.59-1.64Q110.58-2.63 110.58-4.27L110.58-4.27Q110.39-7.64 107.58-7.83L107.58-7.83Q104.72-7.69 104.58-4.27L104.58-4.27Q104.72-0.94 107.58-0.80L107.58-0.80Q108.28-0.80 108.80-1.08L108.80-1.08ZM110.53-0.94L111.66-0.05L111.09 0.56L109.78-0.33Q108.94 0.14 107.58 0.14L107.58 0.14Q103.64 0 103.36-4.27L103.36-4.27Q103.59-8.72 107.58-8.81L107.58-8.81Q111.47-8.67 111.75-4.27L111.75-4.27Q111.70-2.20 110.53-0.94L110.53-0.94ZM118.78-3.19L118.78-8.58L119.95-8.58L119.95-3.05Q119.81 0.05 116.44 0.14L116.44 0.14Q113.30 0.05 113.16-2.86L113.16-2.86L113.16-8.58L114.33-8.58L114.33-3.19Q114.38-0.84 116.48-0.80L116.48-0.80Q118.78-0.84 118.78-3.19L118.78-3.19Z" transform="translate(-0.1875, 8.8125)"></path></g></g></g></g></g><defs v-gra="od"></defs></svg>